<?xml version="1.0" standalone="no"?>
<!DOCTYPE svg PUBLIC "-//W3C//DTD SVG 20010904//EN"
 "http://www.w3.org/TR/2001/REC-SVG-20010904/DTD/svg10.dtd">
<svg version="1.0" xmlns="http://www.w3.org/2000/svg"
 width="512.000000pt" height="512.000000pt" viewBox="0 0 512.000000 512.000000"
 preserveAspectRatio="xMidYMid meet">
<metadata>
Created by potrace 1.11, written by Peter Selinger 2001-2013
</metadata>
<g transform="translate(0.000000,512.000000) scale(0.100000,-0.100000)"
fill="#000000" stroke="none">
<path d="M2379 5116 c-2 -2 -38 -6 -79 -10 -64 -6 -213 -30 -315 -51 -276 -57
-625 -212 -881 -390 -214 -149 -362 -289 -565 -532 -38 -46 -167 -241 -211
-319 -133 -237 -226 -490 -277 -746 -39 -197 -45 -267 -46 -493 0 -165 8 -320
20 -370 2 -11 6 -36 9 -55 2 -19 12 -71 21 -115 22 -104 20 -93 34 -145 191
-702 676 -1293 1331 -1620 65 -33 122 -60 125 -60 3 0 24 -9 48 -20 115 -54
392 -131 553 -155 22 -4 50 -8 64 -11 70 -13 173 -18 345 -19 225 0 294 6 480
41 44 9 94 18 110 21 52 9 252 72 348 109 641 251 1163 763 1431 1402 81 195
152 454 171 627 3 28 10 77 15 110 5 33 7 161 5 285 -3 211 -12 295 -45 460
-6 30 -14 66 -16 80 -3 14 -16 64 -30 112 -225 803 -841 1456 -1630 1728 -108
37 -265 79 -359 96 -22 3 -49 8 -60 10 -11 2 -40 7 -65 10 -25 3 -56 8 -70 10
-30 6 -455 15 -461 10z m112 -213 c0 -38 2 -76 4 -86 2 -10 6 -51 10 -91 l7
-72 -58 -13 c-288 -65 -598 -223 -853 -435 l-84 -70 -56 60 c-126 136 -282
325 -278 338 5 14 173 118 278 171 204 104 453 190 632 220 17 3 57 10 87 16
67 12 174 23 253 27 l57 2 1 -67z m349 51 c41 -5 177 -27 242 -39 63 -12 271
-76 359 -111 131 -52 306 -142 418 -214 94 -61 94 -61 74 -81 -19 -19 -20 -19
-94 14 -138 63 -384 137 -509 153 -25 3 -52 7 -60 9 -33 9 -182 18 -285 19
-94 0 -156 -4 -294 -17 -19 -1 -26 4 -32 26 -8 30 -23 213 -20 245 1 14 74 12
201 -4z m385 -413 c223 -33 432 -93 588 -169 l35 -17 -23 -55 c-12 -30 -26
-54 -31 -53 -5 1 -29 4 -54 8 -24 4 -48 8 -51 11 -30 18 -422 27 -528 11 -92
-13 -202 -38 -284 -64 -44 -13 -83 -21 -87 -16 -17 19 -107 330 -97 339 1 2
39 6 82 10 44 4 81 7 82 9 9 6 302 -5 368 -14z m-679 -54 c5 -32 39 -153 71
-250 19 -60 33 -110 31 -112 -2 -1 -31 -17 -66 -34 -171 -86 -351 -227 -495
-389 l-38 -43 -42 33 c-75 59 -251 211 -317 275 l-65 62 30 28 c196 186 573
384 840 441 43 9 48 8 51 -11z m-1365 -198 c47 -57 118 -139 158 -181 l72 -77
-72 -83 c-102 -119 -221 -302 -295 -454 -35 -73 -64 -137 -64 -142 0 -6 -4
-13 -10 -17 -16 -10 -600 210 -600 227 0 16 81 170 136 259 95 153 246 346
344 437 14 13 50 47 80 76 30 28 71 64 90 80 l34 28 21 -24 c11 -14 59 -72
106 -129z m2969 81 l55 -51 -50 33 c-27 18 -62 39 -77 47 -15 8 -24 19 -21 27
7 18 25 7 93 -56z m-72 -146 c90 -61 182 -134 247 -197 39 -39 39 -39 5 -14
-46 33 -228 127 -305 157 -33 13 -63 26 -68 30 -8 7 19 80 30 80 3 0 44 -25
91 -56z m-573 -88 c84 -5 242 -30 252 -40 3 -2 0 -28 -6 -58 -5 -29 -13 -78
-16 -109 l-7 -55 -40 -3 c-175 -10 -452 -102 -580 -192 -14 -11 -28 -19 -31
-19 -13 0 -122 179 -188 310 l-38 75 27 12 c28 12 210 57 272 68 19 3 80 8
135 11 55 4 102 8 103 10 2 1 9 1 15 -1 7 -2 53 -6 102 -9z m487 -113 c183
-78 401 -222 498 -328 l25 -28 -44 28 c-100 62 -292 135 -421 160 -24 5 -133
19 -150 19 -12 1 -14 13 -12 56 2 30 5 64 7 75 2 11 4 26 4 33 1 18 23 15 93
-15z m-1225 -141 c29 -59 83 -153 119 -210 l66 -103 -77 -77 c-43 -42 -104
-114 -137 -159 -33 -46 -63 -83 -65 -83 -3 0 -48 26 -101 58 -54 31 -102 59
-108 62 -6 3 -75 48 -152 100 -103 69 -138 98 -133 108 18 33 181 188 256 244
73 54 261 169 275 167 3 0 29 -49 57 -107z m-1165 -37 c35 -33 92 -85 127
-115 35 -30 69 -60 75 -65 6 -6 44 -37 83 -68 l72 -57 -33 -53 c-64 -100 -123
-222 -176 -364 -7 -18 -18 -33 -24 -33 -19 0 -587 174 -608 186 -17 10 101
248 188 381 85 128 202 265 218 256 8 -5 43 -35 78 -68z m2129 -129 c5 -85 27
-206 51 -284 11 -35 18 -65 16 -67 -2 -2 -37 -26 -78 -53 -41 -28 -99 -73
-128 -101 l-52 -51 -43 37 c-122 106 -327 320 -327 342 0 10 190 106 250 125
75 25 162 45 220 52 30 3 56 7 58 9 7 6 32 0 33 -9z m269 -7 c188 -29 381
-116 538 -242 52 -42 60 -53 49 -64 -11 -11 -19 -11 -48 1 -150 63 -372 75
-543 31 -39 -10 -53 -10 -58 -2 -11 18 -46 175 -53 240 -6 56 -6 58 17 53 13
-3 57 -10 98 -17z m-1660 -436 c52 -32 124 -77 160 -98 116 -67 111 -64 99
-83 -5 -9 -25 -57 -43 -107 -18 -49 -37 -89 -43 -88 -6 1 -21 4 -34 7 -33 6
-350 81 -485 114 l-112 28 28 74 c31 87 88 202 136 278 l34 52 82 -58 c46 -33
126 -86 178 -119z m820 43 c78 -85 198 -199 264 -251 l28 -22 -33 -60 -33 -60
-120 48 c-123 48 -323 136 -409 180 l-48 25 45 63 c24 36 77 97 116 137 l72
72 36 -41 c21 -23 57 -64 82 -91z m-2456 -51 c109 -41 203 -78 208 -83 5 -5 5
-19 -1 -35 -16 -42 -59 -256 -67 -332 -4 -38 -8 -81 -9 -95 -2 -14 -3 -39 -4
-55 l-1 -31 -341 0 -341 0 6 75 c6 92 15 178 21 207 3 12 7 39 11 60 16 110
87 372 115 425 7 15 20 12 106 -23 54 -22 188 -73 297 -113z m3661 34 c137
-30 147 -37 129 -95 -7 -25 -15 -74 -17 -110 l-4 -66 -63 -34 c-35 -19 -76
-45 -90 -59 l-27 -25 -45 39 c-85 75 -256 309 -243 332 4 6 100 25 165 33 37
4 149 -4 195 -15z m-470 -137 c44 -83 164 -239 240 -310 36 -34 63 -62 59 -62
-15 0 -204 87 -289 133 -101 55 -235 139 -235 148 0 19 159 147 185 148 6 1
23 -25 40 -57z m852 -68 c36 -36 63 -68 60 -70 -3 -3 -24 0 -48 6 -45 12 -80
18 -116 19 -20 1 -21 5 -17 49 7 74 12 84 35 71 12 -6 50 -40 86 -75z m-3452
-32 c88 -28 210 -65 270 -82 61 -17 115 -33 121 -35 8 -2 8 -23 -1 -77 -7 -40
-16 -107 -20 -148 -4 -41 -9 -77 -12 -80 -2 -3 -155 -5 -340 -5 l-335 -1 7 84
c3 46 8 91 10 100 1 9 6 40 9 67 4 28 18 95 32 149 13 54 24 100 24 102 0 2
17 -3 38 -10 21 -8 110 -36 197 -64z m1546 -68 c124 -61 180 -86 329 -145 69
-28 135 -54 148 -59 12 -5 22 -16 22 -23 0 -12 -21 -11 -122 5 -68 10 -140 21
-162 23 -21 3 -41 7 -45 9 -3 2 -31 7 -61 11 -30 4 -57 8 -60 10 -3 2 -27 6
-54 9 -27 4 -52 9 -56 11 -3 2 -26 6 -50 10 -25 4 -47 9 -49 11 -9 9 51 174
63 174 2 0 45 -21 97 -46z m798 -87 c24 -17 78 -50 120 -73 42 -24 72 -44 66
-44 -8 0 -171 47 -267 77 -22 7 -22 16 -3 54 17 32 15 32 84 -14z m-1611 -51
c97 -24 244 -59 325 -77 l149 -33 -6 -29 c-3 -16 -6 -41 -6 -56 l0 -27 -341 0
-341 0 6 76 c4 41 11 93 16 115 5 22 9 41 10 43 0 1 0 9 0 17 0 8 2 15 5 15 3
0 86 -20 183 -44z m2683 34 c23 0 25 -23 3 -45 -20 -19 -37 -7 -49 34 -6 20
-4 23 10 18 9 -4 25 -7 36 -7z m-175 -86 c17 -35 28 -64 26 -64 -11 0 -142 75
-142 81 0 9 62 49 75 48 6 0 24 -29 41 -65z m-1716 -119 c14 -3 70 -13 125
-22 55 -9 103 -19 107 -22 4 -4 -87 -7 -202 -7 l-210 0 0 37 c0 19 2 38 5 41
4 4 40 -1 175 -27z m-1989 -225 c3 -133 41 -361 85 -511 3 -12 -11 -21 -63
-39 -78 -26 -424 -158 -496 -189 l-48 -21 -15 36 c-17 41 -79 254 -87 299 -44
243 -46 260 -52 359 -3 46 -1 82 5 86 5 3 158 6 340 6 l330 0 1 -26z m822 20
c3 -3 9 -41 12 -85 4 -44 13 -109 21 -145 9 -44 10 -66 3 -71 -6 -3 -61 -21
-122 -38 -62 -18 -201 -61 -309 -96 -109 -34 -198 -61 -198 -58 0 2 -9 39 -20
82 -25 93 -24 93 -45 231 -9 54 -16 171 -11 178 5 9 661 10 669 2z m838 -50
c3 -30 5 -55 5 -56 -1 -1 -66 -16 -146 -34 -80 -17 -225 -52 -324 -76 -98 -25
-180 -43 -182 -42 -1 2 -6 19 -9 38 -3 19 -8 42 -10 50 -7 29 -17 159 -12 168
3 4 156 8 339 7 l333 0 6 -55z m571 49 c-4 -3 -45 -12 -92 -19 -112 -17 -110
-16 -220 -39 -69 -13 -97 -15 -102 -7 -9 12 -11 60 -3 67 2 3 99 5 214 5 116
0 207 -3 203 -7z m1474 -163 c-17 -36 -35 -65 -40 -65 -12 -1 -76 39 -76 48 0
6 128 80 141 81 3 0 -8 -29 -25 -64z m-1196 33 c0 -11 2 -10 -175 -79 -71 -28
-190 -80 -263 -115 -73 -36 -141 -66 -150 -67 -12 -2 -23 13 -39 54 -13 32
-26 71 -29 86 -5 27 -3 30 28 35 18 3 96 17 173 31 77 15 158 28 180 31 22 3
65 10 95 15 30 5 78 12 105 16 28 3 52 8 54 10 6 6 21 -6 21 -17z m480 -23 c0
-3 -26 -19 -57 -37 -32 -18 -83 -49 -113 -69 -30 -20 -61 -40 -67 -44 -13 -7
-52 58 -41 69 5 5 164 54 243 75 17 4 31 8 33 9 1 1 2 -1 2 -3z m285 -90 c-89
-90 -182 -217 -221 -298 -10 -21 -20 -38 -24 -38 -24 0 -190 129 -190 148 0 9
125 90 230 147 77 42 276 134 291 135 4 0 -35 -43 -86 -94z m625 14 c0 -11 -6
-20 -12 -20 -7 0 -23 -3 -35 -6 -27 -8 -30 7 -7 41 13 20 20 23 35 14 10 -5
19 -19 19 -29z m-2128 -227 c6 -8 2 -16 -14 -26 -13 -8 -86 -52 -163 -98 -77
-46 -186 -116 -242 -156 l-103 -72 -27 42 c-70 110 -163 310 -163 350 0 8 47
25 128 45 155 38 326 79 367 87 17 3 55 11 85 19 l55 13 33 -96 c19 -53 38
-101 44 -108z m1808 103 l63 -34 3 -53 c3 -64 10 -108 24 -145 6 -15 9 -28 8
-29 -60 -40 -311 -71 -408 -51 -14 3 -38 9 -55 12 -46 10 -47 12 -19 62 45 81
112 168 189 248 l75 77 28 -26 c16 -15 57 -42 92 -61z m-990 12 c14 -28 25
-55 25 -58 0 -4 -20 -24 -45 -44 -68 -56 -225 -212 -291 -289 -32 -37 -61 -68
-63 -70 -13 -7 -149 139 -199 213 l-38 55 133 64 c146 70 414 181 438 181 8
-1 26 -24 40 -52z m1361 -76 c-27 -35 -95 -96 -126 -115 -14 -7 -24 23 -31 90
-2 25 1 33 14 34 51 2 103 10 124 18 45 19 50 11 19 -27z m-3035 -49 c35 -108
100 -247 165 -355 l47 -76 -131 -110 c-159 -133 -176 -148 -250 -219 -50 -48
-59 -54 -73 -42 -31 26 -135 159 -199 254 -83 127 -204 369 -187 378 11 6 213
71 332 107 58 17 119 36 135 41 142 43 154 45 161 22z m1974 -205 c41 -27 76
-51 78 -53 1 -1 -6 -36 -18 -76 -25 -90 -53 -249 -46 -257 3 -3 1 -10 -4 -17
-22 -26 -244 22 -393 86 -90 38 -167 83 -167 97 1 18 200 224 299 308 l73 63
52 -50 c28 -28 85 -73 126 -101z m-1009 15 c44 -66 123 -158 188 -220 l55 -51
-46 -69 c-62 -93 -107 -173 -154 -270 -21 -45 -41 -82 -44 -82 -16 -2 -196
109 -275 169 -126 96 -268 239 -253 257 24 29 467 312 490 313 4 0 21 -21 39
-47z m-1724 -75 c56 -142 226 -431 313 -532 14 -16 30 -34 35 -40 6 -7 25 -28
44 -48 l34 -37 -94 -103 c-52 -57 -128 -143 -168 -193 -41 -49 -80 -96 -87
-104 -11 -12 -19 -8 -56 24 -115 102 -205 193 -303 305 -46 52 -147 195 -203
286 -51 82 -132 237 -132 252 0 12 559 230 593 232 4 0 15 -19 24 -42z m3603
-36 c0 -19 -35 -50 -128 -116 -136 -95 -339 -173 -503 -192 -30 -3 -58 -7 -64
-8 -14 -2 -13 48 2 129 14 77 41 175 48 175 2 0 15 -4 28 -9 14 -6 42 -12 64
-16 21 -3 50 -8 63 -10 91 -19 322 6 419 45 59 24 71 24 71 2z m-2501 -295
c113 -135 300 -284 469 -374 48 -25 88 -47 90 -49 2 -1 -12 -51 -32 -111 -19
-59 -42 -140 -52 -178 -9 -39 -21 -75 -26 -81 -14 -19 -195 35 -361 106 -168
73 -360 193 -503 317 l-49 42 60 58 c151 147 355 314 370 305 5 -3 21 -19 34
-35z m1019 24 c130 -91 405 -183 580 -193 35 -1 42 -5 43 -22 0 -12 2 -28 3
-36 2 -8 6 -40 10 -70 4 -30 10 -65 12 -77 5 -19 0 -22 -48 -32 -50 -11 -82
-15 -178 -26 -57 -7 -231 -7 -300 0 -90 9 -200 32 -297 61 -68 20 -81 27 -76
41 28 72 205 373 219 373 3 0 18 -8 32 -19z m1342 -52 c-80 -74 -216 -171
-307 -219 -88 -46 -209 -100 -227 -100 -9 0 -16 15 -20 38 -13 90 -17 142 -9
140 15 -4 145 13 207 27 124 29 303 101 381 153 49 34 43 24 -25 -39z m-155
-324 c-72 -66 -195 -157 -264 -197 l-51 -30 -16 37 c-8 21 -12 41 -7 45 4 4
47 23 95 43 86 34 234 111 273 141 42 33 27 13 -30 -39z m-2717 -132 c32 -27
59 -51 62 -54 13 -16 157 -113 246 -166 179 -107 391 -194 570 -234 l56 -13
-7 -80 c-4 -45 -9 -89 -11 -99 -1 -10 -4 -45 -5 -78 l-2 -61 -85 6 c-81 6
-119 10 -187 21 -16 3 -48 7 -70 10 -159 24 -425 107 -600 189 -100 47 -299
159 -344 195 l-24 18 45 59 c73 95 285 334 295 334 3 0 30 -21 61 -47z m1357
-41 c156 -44 278 -60 450 -60 157 0 224 7 360 34 22 4 45 8 50 9 10 0 54 -95
48 -106 -8 -18 -291 -127 -371 -144 -9 -2 -37 -8 -62 -14 -141 -32 -300 -48
-458 -45 -113 1 -253 11 -260 19 -5 5 55 226 79 291 16 42 25 55 38 51 9 -3
66 -19 126 -35z m1255 -105 c0 -2 -28 -27 -62 -56 -42 -36 -63 -48 -69 -40 -5
8 15 27 59 55 69 45 72 47 72 41z m-260 -172 c7 -8 10 -21 7 -28 -8 -21 -213
-142 -349 -206 -191 -91 -441 -170 -613 -196 -22 -3 -51 -7 -65 -10 -78 -12
-112 -16 -187 -20 -92 -6 -86 -11 -84 70 2 40 4 66 16 162 6 45 9 51 27 48 45
-9 198 -19 288 -19 306 0 585 57 850 174 102 45 95 44 110 25z"/>
</g>
</svg>
